<?xml version="1.0" encoding="UTF-8" standalone="no"?>
<!-- Created with Inkscape (http://www.inkscape.org/) -->

<svg
   width="89.605988mm"
   height="89.605988mm"
   viewBox="0 0 89.605988 89.605988"
   version="1.1"
   id="svg1"
   xml:space="preserve"
   xmlns="http://www.w3.org/2000/svg"
   xmlns:svg="http://www.w3.org/2000/svg"><defs
     id="defs1" /><rect
     style="fill:#ffbf00;fill-opacity:1;stroke-width:0.262789"
     id="rect1"
     width="89.605995"
     height="89.605995"
     x="-3.6024898e-07"
     y="-8.513367e-06" /><g
     id="layer1"
     transform="translate(-36.51751,-89.606011)"><path
       style="fill:#1e3f71;stroke-width:0.771763"
       d="m 42.093346,167.4774 c -1.206515,-0.18675 -1.528255,-2.55395 3.920513,-4.97607 5.609601,-2.49362 9.966018,-4.52008 15.101255,-7.77567 l 0.02011,-6.02927 c 0.01537,-4.6094 0.216477,-9.21537 1.04225,-14.9055 1.918452,-13.21943 6.606377,-26.59072 11.687723,-33.33671 3.39557,-4.507972 7.351427,-7.301845 10.794575,-7.313628 2.52146,-0.0083 4.640609,0.868091 6.03889,3.038063 1.308568,2.030734 2.096217,4.331935 2.079427,8.794955 -0.02255,5.99326 -1.087153,12.05657 -3.57706,19.21155 -3.679783,10.57417 -11.686806,21.85778 -20.221227,31.11756 -0.966594,1.04874 -1.757445,2.04058 -1.757445,2.20409 0,0.67776 0.919787,4.22416 1.417714,5.46622 0.68975,1.72057 2.226142,3.89325 3.211653,4.54176 2.560643,1.685 6.400774,1.26087 10.39046,-1.1476 0.909104,-0.5488 9.990836,-6.20117 16.063633,-16.55926 1.988123,-3.39107 4.836663,-8.81021 4.836663,-9.20142 0,-1.69775 -8.754023,1.13697 -6.688189,-0.52316 0.750585,-0.60318 -1.257966,1.13803 10.616549,-7.44749 4.43362,-3.2056 3.92668,-1.53889 4.01692,-0.43374 0.41418,5.07233 2.1155,18.09304 0.24787,14.98916 -0.61946,-1.0295 -2.44319,-3.10217 -3.11291,-4.12291 -0.27255,-0.4154 -2.0306,4.82918 -3.24383,6.93807 -5.322264,9.25137 -6.636032,10.82637 -10.5885,14.67619 -6.713977,6.5396 -9.405433,7.30502 -14.651589,9.01646 -2.171903,0.70854 -6.344453,0.89251 -8.230383,0.36289 -3.443652,-0.96706 -6.385649,-3.5411 -7.583027,-8.09119 -0.452285,-1.7187 -0.456976,-1.72777 -0.774409,-3.56203 -0.515385,-2.97811 -1.019038,-2.06145 -1.475139,-1.74552 -1.032251,0.71502 -1.49038,1.07605 -4.078148,2.61254 -2.712678,1.61065 -9.88244,4.97658 -15.504337,4.20166 z m 27.202377,-20.63805 c 8.221207,-9.8652 14.993458,-23.3906 17.453407,-34.85754 0.738845,-3.44411 0.92879,-4.99669 0.94663,-7.73779 0.09052,-2.28362 -0.227778,-5.427116 -3.110449,-5.516836 -4.189023,0.03458 -8.098422,7.558686 -9.49605,10.570476 -4.273203,9.20844 -7.617541,23.26333 -8.374194,35.19334 -0.245132,3.86494 -0.232572,5.10686 0.05165,5.10686 0.126608,0 1.264661,-1.24132 2.529006,-2.75851 z"
       id="path5" /></g></svg>
